# Platform

# Vertex positions
v -1.0 0.0 1.0
v 1.0 0.0 1.0
v 1.0 0.5 -1.0
v -1.0 0.5 -1.0
v -1.0 0.0 1.0
v 1.0 0.0 1.0
v 1.0 0.5 -1.0
v -1.0 0.5 -1.0

# Texture coordinates
vt 0.0 0.0
vt 1.0 0.0
vt 1.0 1.0
vt 0.0 1.0

# Normals
vn 0.0 1.0 0.0   # Top
vn 0.0 0.0 -1.0  # Bottom
vn 1.0 0.0 0.0   # Right
vn -1.0 0.0 0.0  # Left
vn 0.0 0.0 1.0   # Front
vn 0.0 0.0 -1.0  # Back

# Face definitions
f 1/1/1 2/2/1 3/3/1
f 1/1/1 3/3/1 4/4/1
f 5/1/2 8/2/2 7/3/2
f 5/1/2 7/3/2 6/4/2
f 1/1/3 5/2/3 6/3/3
f 1/1/3 6/3/3 2/4/3
f 2/1/4 6/2/4 7/3/4
f 2/1/4 7/3/4 3/4/4
f 3/1/5 7/2/5 8/3/5
f 3/1/5 8/3/5 4/4/5
f 5/1/6 1/2/6 4/3/6
f 5/1/6 4/3/6 8/4/6

name platform